<svg id="Logo_Show" data-name="Logo Show" xmlns="http://www.w3.org/2000/svg" viewBox="0 0 342.25 342.53"><defs><style>.cls-1{fill:#fff;}</style></defs><path class="cls-1" d="M637.27,477.08h0a13.69,13.69,0,0,1-6.83-17.86c16.4-38,17.67-71.16-.1-89.06-32.76-33-117.85-1.67-190.06,70-11.06,11-31.26,36.53-46.64,56.56a23.48,23.48,0,0,1-39.36-3.29c-19.77-37.26-43.17-100.67-4.59-144.53,21.44-24.36,62-25.16,105.68-10.36a13.52,13.52,0,0,1,8.24,17.76h0a13.47,13.47,0,0,1-17,7.78c-32.82-11.56-60.87-10.79-76.84,5.06-19.19,19-16.75,55.66,2.66,97.15a4.08,4.08,0,0,0,7,.68,388.15,388.15,0,0,1,40.61-47.18c83.4-82.8,186.64-114,230.58-69.77,25.3,25.49,25.41,70.47,5,119.85A13.69,13.69,0,0,1,637.27,477.08Z" transform="translate(-328.87 -328.73)"/><path class="cls-1" d="M649.52,651c-20.91,24.83-62,25.16-105.76,10.32a13.5,13.5,0,0,1,4.29-26.3,13.13,13.13,0,0,1,4.46.77c32.84,11.59,60.93,10.84,76.92-5,19.4-19.26,16.67-56.52-3.35-98.6a3.16,3.16,0,0,0-5.41-.49,395.53,395.53,0,0,1-94.59,92.62c-9,6.19-18,11.78-27,16.76C438,674.92,379,680.52,348.58,649.84c-25.56-25.74-25.42-71.35-4.43-121.29a13.72,13.72,0,0,1,18.1-7.29h0a13.7,13.7,0,0,1,7.08,18.1c-16.93,38.55-18.42,72.24-.46,90.34,19.92,20.08,59.2,16.35,103.17-5.78a284.27,284.27,0,0,0,27-15.53,375.26,375.26,0,0,0,59.93-48.7c11-10.87,30.55-35.75,45.61-55.44a24.6,24.6,0,0,1,40.92,2.83C665.89,543,689.22,603.79,649.52,651Z" transform="translate(-328.87 -328.73)"/><circle class="cls-1" cx="172.47" cy="171.28" r="37.2"/></svg>