<svg id="Logo_Show" data-name="Logo Show" xmlns="http://www.w3.org/2000/svg" viewBox="0 0 785.67 64"><defs><style>.cls-1{fill:#fff;}</style></defs><path class="cls-1" d="M154.69,504a30.28,30.28,0,0,1-2.48,12.32,34.9,34.9,0,0,1-6.88,10.24,32.41,32.41,0,0,1-10.25,6.88,30.68,30.68,0,0,1-12.4,2.56H101.4L112,525.28h10.64a21.94,21.94,0,0,0,8.32-1.6,20.91,20.91,0,0,0,6.81-4.64,23.07,23.07,0,0,0,4.56-6.8,21,21,0,0,0,0-16.48,21.86,21.86,0,0,0-4.64-6.8,22.23,22.23,0,0,0-6.81-4.64,21.83,21.83,0,0,0-8.24-1.6H112L101.4,472h21.28a31,31,0,0,1,12.4,2.56,33,33,0,0,1,10.17,6.88,33.64,33.64,0,0,1,7,10.24A30.28,30.28,0,0,1,154.69,504Z" transform="translate(-101.4 -472)"/><path class="cls-1" d="M209.08,525.28,203.64,536H191.8l32-64,21.36,42.72h-12l-9.36-18.8-9.44,18.8ZM255.8,536H243.88l-5.28-10.64h11.84Z" transform="translate(-101.4 -472)"/><path class="cls-1" d="M316,513l13.12,23H316.84l-18.56-32.08,9.52.08a10.79,10.79,0,0,0,10.64-10.72,9.94,9.94,0,0,0-3.2-7.44,10.16,10.16,0,0,0-7.44-3.12H286.44l-1.2-1.2L279.72,472H307.8a21.3,21.3,0,0,1,21.28,21.28,20.23,20.23,0,0,1-3.76,12.08A20.64,20.64,0,0,1,316,513Z" transform="translate(-101.4 -472)"/><path class="cls-1" d="M375.8,504l32,32h-15l-27.68-27.52-4.48-4.4,4.48-4.48L392.76,472h15Zm-10.72-4.4L392.76,472ZM392.76,536l-27.68-27.52Z" transform="translate(-101.4 -472)"/><path class="cls-1" d="M457,472l32.08,32,32-32v64H510.52V497.76l-21.44,21.36L457,486.88Z" transform="translate(-101.4 -472)"/><path class="cls-1" d="M574.6,525.28,569.16,536H557.32l32-64,21.36,42.72h-12l-9.36-18.8-9.44,18.8ZM621.32,536H609.4l-5.28-10.64H616Z" transform="translate(-101.4 -472)"/><path class="cls-1" d="M677.24,472v10.72H656V536H645.24V472Z" transform="translate(-101.4 -472)"/><path class="cls-1" d="M738,472v10.72H716.76V536H706V472Z" transform="translate(-101.4 -472)"/><path class="cls-1" d="M809.48,472v10.72h-32L766.84,472Zm-32,26.72h32v10.64H766.84V498.72Zm0,26.56h32V536H766.84v-.88Z" transform="translate(-101.4 -472)"/><path class="cls-1" d="M874,513l13.12,23H874.84l-18.56-32.08,9.52.08a10.79,10.79,0,0,0,10.64-10.72,9.94,9.94,0,0,0-3.2-7.44,10.16,10.16,0,0,0-7.44-3.12H844.44l-1.2-1.2L837.72,472H865.8a21.3,21.3,0,0,1,21.28,21.28,20.23,20.23,0,0,1-3.76,12.08A20.64,20.64,0,0,1,874,513Z" transform="translate(-101.4 -472)"/></svg>